<svg xmlns="http://www.w3.org/2000/svg" viewBox="0 0 11860.54 2060.07"><defs><style>.cls-1{fill:#fff;}</style></defs><g id="Layer_2" data-name="Layer 2"><g id="Layer_1-2" data-name="Layer 1"><path class="cls-1" d="M2892.38,869.78c0-340.86,267.84-590.87,631.45-590.87s631.46,250,631.46,590.87-267.85,590.87-631.46,590.87S2892.38,1210.69,2892.38,869.78Zm938.25,0c0-196.41-134.73-324.65-306.8-324.65S3217,673.37,3217,869.78s134.73,324.66,306.79,324.66S3830.63,1066.2,3830.63,869.78Z"/><path class="cls-1" d="M5348.6,722.07c0,258.12-194.79,418.82-504.84,418.82h-198v297H4324.32V301.63h519.44C5153.81,301.63,5348.6,462.37,5348.6,722.07Zm-324.66,0c0-105.51-66.54-167.21-199.65-167.21H4645.73v332.8h178.56C4957.4,887.66,5023.94,826,5023.94,722.07Z"/><path class="cls-1" d="M5483.52,931.48V301.63h321.4V921.75c0,194.78,81.16,272.69,215.9,272.69,133.11,0,214.27-77.91,214.27-272.69V301.63h316.53V931.48c0,339.24-198,529.17-534.06,529.17S5483.52,1270.72,5483.52,931.48Z"/><path class="cls-1" d="M6689.8,1335.67l105.52-237c100.63,66.59,243.49,112,375,112,133.11,0,185.05-37.35,185.05-92.53,0-180.21-646.05-48.71-646.05-470.77,0-202.89,165.56-368.48,503.21-368.48,147.71,0,300.3,34.09,412.3,99l-99,238.61c-108.75-58.44-215.88-87.64-314.9-87.64-134.74,0-183.42,45.45-183.42,102.26,0,173.69,644.42,43.82,644.42,462.63,0,198-165.56,366.84-503.21,366.84C6982,1460.65,6797,1410.32,6689.8,1335.67Z"/><path class="cls-1" d="M8243.4,903.87l-232.13,235.39v298.67H7891.16V301.63h120.11V988.29l667.17-686.66h138l-491.85,514.6,525.93,621.7H8707.64Z"/><path class="cls-1" d="M9849,1334v103.89H9045.47V301.63h779.16V405.52h-659V809.71H9753.2V912H9165.59v422Z"/><path class="cls-1" d="M10506.59,1045.1v392.83H10388.1V1045.1L9933.59,301.63h128.25l389.57,638L10841,301.63h120.13Z"/><path class="cls-1" d="M11014.83,1300l47.08-92.53c81.16,79.53,225.63,138,375,138,212.64,0,305.17-89.26,305.17-201.3,0-311.66-699.63-120.09-699.63-540.53,0-167.18,129.85-311.67,418.79-311.67,128.24,0,261.35,37.34,352.25,100.67l-40.58,95.74c-97.4-63.28-211-94.15-311.67-94.15-207.77,0-300.3,92.53-300.3,206.19,0,311.66,699.63,123.35,699.63,537.28,0,167.21-133.11,310-423.66,310C11266.43,1447.66,11099.23,1387.59,11014.83,1300Z"/><path class="cls-1" d="M2136,652.22,1640.56,156.8C1539.64,55.88,1405.36,0,1262.74,0S985.84,55.88,884.92,156.8L508.35,533l240.2,240.2,54.21-53.79,25.86-26.27H829L1125.12,397a194.31,194.31,0,0,1,275.23,0l495.42,495.42c37.11,36.7,57.13,85.91,57.13,137.62a193.32,193.32,0,0,1-57.13,138l-495.42,495.42a194.31,194.31,0,0,1-275.23,0L748.55,1286.92l-240.2,240.2,58.8,58.8,317.77,317.77c100.92,100.92,235.19,156.38,377.82,156.38s276.9-55.46,377.82-156.38L2136,1408.28c101.33-100.93,156.79-235.2,156.79-378.24C2292.77,887.42,2237.31,753.14,2136,652.22Z"/><polygon class="cls-1" points="1331.35 949.57 458.99 949.57 568.41 841.61 386.23 659.42 0 1045.65 386.23 1414.77 568.73 1232.27 458.99 1122.53 1083.32 1122.53 1083.32 1367.04 1245.61 1367.04 1245.61 1122.53 1331.39 1122.53 1331.35 949.57"/></g></g></svg>